<svg viewBox="0 0 313 63" xmlns="http://www.w3.org/2000/svg" xmlns:xlink="http://www.w3.org/1999/xlink" width="313.000000" height="63.000000" fill="none" customFrame="#000000">
	<defs>
		<linearGradient id="paint_linear_16" x1="236.499985" x2="313.895203" y1="58.9999924" y2="7.85467911" gradientUnits="userSpaceOnUse">
			<stop stop-color="rgb(32,117,255)" offset="0" stop-opacity="1" />
			<stop stop-color="rgb(37,170,251)" offset="0.704641342" stop-opacity="1" />
			<stop stop-color="rgb(117.5,135,254.5)" offset="0.958659589" stop-opacity="1" />
		</linearGradient>
		<linearGradient id="paint_linear_17" x1="19.8510971" x2="48.3119049" y1="41.1930122" y2="17.3810749" gradientUnits="userSpaceOnUse">
			<stop stop-color="rgb(33,123,254)" offset="0" stop-opacity="1" />
			<stop stop-color="rgb(7,142,251)" offset="0.270000011" stop-opacity="1" />
			<stop stop-color="rgb(161,144,255)" offset="0.77700001" stop-opacity="1" />
			<stop stop-color="rgb(189,153,254)" offset="1" stop-opacity="1" />
		</linearGradient>
		<linearGradient id="paint_linear_18" x1="19.8510971" x2="48.3119049" y1="41.1930122" y2="17.3810749" gradientUnits="userSpaceOnUse">
			<stop stop-color="rgb(33,123,254)" offset="0" stop-opacity="1" />
			<stop stop-color="rgb(7,142,251)" offset="0.270000011" stop-opacity="1" />
			<stop stop-color="rgb(161,144,255)" offset="0.77700001" stop-opacity="1" />
			<stop stop-color="rgb(189,153,254)" offset="1" stop-opacity="1" />
		</linearGradient>
	</defs>
	<g id="组合 311">
		<g id="组合 310">
			<g id="组合 308">
				<path id="矢量 466" d="M78.9785 58.8293L85.8225 3.302L107.917 3.302C112.876 3.35129 116.682 4.39875 119.336 6.44436C121.989 8.48997 123.316 11.4845 123.316 15.4278C123.316 15.8221 123.266 16.5615 123.167 17.6459L122.869 20.3077C122.274 24.4975 120.389 27.6029 117.215 29.6239C119.348 30.4618 120.96 31.7434 122.051 33.4687C123.142 35.1939 123.688 37.2641 123.688 39.6794C123.688 40.4188 123.663 40.9857 123.613 41.38L123.241 44.4854C122.646 49.0695 120.65 52.6062 117.253 55.0955C113.855 57.5847 109.231 58.8293 103.379 58.8293L78.9785 58.8293ZM105.239 26.7403C110.545 26.6417 113.521 24.5468 114.165 20.4556L114.537 17.4981C114.885 13.3575 112.43 11.238 107.173 11.1394L93.6335 11.1394L91.6994 26.7403L105.239 26.7403ZM104.42 50.8441C107.346 50.7948 109.652 50.2279 111.339 49.1435C113.025 48.0591 114.041 46.5557 114.389 44.6333L114.761 41.4539C115.009 39.1865 114.426 37.449 113.012 36.2413C111.599 35.0337 109.404 34.4052 106.429 34.3559L90.8067 34.3559L88.7237 50.8441L104.42 50.8441ZM157.238 50.6962L161.255 17.6459L169.81 17.6459L164.751 58.8293L146.079 58.8293C135.813 58.8293 130.68 54.1466 130.68 44.7812C130.68 43.6474 130.755 42.4151 130.903 41.0843L133.805 17.6459L142.36 17.6459L139.458 41.3061C139.359 41.9469 139.31 42.8341 139.31 43.9678C139.31 46.531 139.917 48.3055 141.132 49.2914C142.347 50.2772 144.319 50.7701 147.046 50.7701L157.238 50.6962ZM179.778 12.1006L180.894 3.22806L190.639 3.22806L189.524 12.1006L179.778 12.1006ZM183.2 58.8293L174.645 58.8293L179.778 17.6459L188.333 17.6459L183.2 58.8293ZM194.433 35.465C195.872 23.5856 202.269 17.6459 213.626 17.6459L223.371 17.6459L225.306 1.82324L233.861 1.82324L226.868 58.8293L208.94 58.8293C198.674 58.8293 193.541 54.1466 193.541 44.7812C193.541 43.6474 193.615 42.4151 193.764 41.0843L194.433 35.465ZM219.28 50.918L222.404 25.4094L212.659 25.4094C207.055 25.4094 203.856 28.6873 203.063 35.2432L202.319 41.3061C202.22 42.2919 202.17 43.0066 202.17 43.4503C202.17 48.4287 204.749 50.918 209.907 50.918L219.28 50.918Z" fill="rgb(0,0,0)" fill-rule="nonzero" />
			</g>
			<g id="组合 309">
				<path id="矢量 465" d="M232.152 58.8169L270.706 1.56641L270.83 1.56641L280.944 58.8169L271.359 58.8169L269.449 47.1907L250.333 47.1907L242.604 58.8169L232.152 58.8169ZM255.691 39.1601L268.068 39.1601L266.891 32.0658C266.636 30.583 266.411 29.1431 266.215 27.7461C266.02 26.3491 265.902 24.7081 265.861 22.8232C264.94 24.6787 264.049 26.3094 263.189 27.7154C262.329 29.1213 261.394 30.5715 260.384 32.0658L255.691 39.1601ZM288.746 58.8169L302.69 3.49963L313.001 3.49963L299.057 58.8169L288.746 58.8169Z" fill="url(#paint_linear_16)" fill-rule="nonzero" />
			</g>
		</g>
		<path id="矢量 471" d="M14.5147 0L47.9987 0C56.0164 0 62.5134 6.54945 62.5134 14.6277L62.5134 48.3723C62.5134 56.4506 56.0164 63 47.9987 63L14.5147 63C6.49701 63 0 56.4506 0 48.3723L0 14.6277C0 6.54945 6.49701 0 14.5147 0Z" fill="rgb(9,0,23)" fill-rule="evenodd" />
		<path id="矢量 471" d="M49.3344 28.8042C46.7962 29.1994 44.3802 29.095 42.0012 28.5133C39.6148 27.9018 37.4392 26.9007 35.5301 25.5415C33.6172 24.1824 31.9745 22.4598 30.6425 20.4258C29.3402 18.3881 28.4892 16.1639 28.0859 13.6806C28.0822 13.6675 28.0785 13.6545 28.0674 13.6452C28.06 13.634 28.0489 13.6265 28.0378 13.6228C28.0267 13.6172 28.0119 13.6153 27.9971 13.6191C27.986 13.6209 27.9749 13.6246 27.9638 13.634C27.9527 13.6414 27.9453 13.6507 27.9416 13.6638C27.9379 13.675 27.9379 13.688 27.9379 13.6992C28.3412 16.1844 28.2191 18.5614 27.5938 20.8993C27.0018 23.2354 25.9992 25.3682 24.6117 27.2418C23.2279 29.1155 21.4705 30.73 19.3985 32.0369C17.3229 33.314 15.0549 34.1492 12.5204 34.5463C12.4797 34.5538 12.4538 34.5911 12.4575 34.6302C12.4649 34.6694 12.5019 34.6955 12.5426 34.6899C15.0734 34.2947 17.4968 34.414 19.8832 35.0255C22.2623 35.6072 24.4378 36.5915 26.3469 37.9506C28.2598 39.3135 29.8877 41.0361 31.1901 43.0757C32.5221 45.1097 33.3878 47.3283 33.7911 49.8153C33.7948 49.8284 33.7985 49.8396 33.8096 49.8489C33.817 49.8601 33.8281 49.8675 33.8392 49.8713C33.8503 49.875 33.8651 49.8769 33.8762 49.875C33.8873 49.8731 33.9021 49.8675 33.9095 49.8601C33.9206 49.8526 33.928 49.8414 33.9317 49.8303C33.9391 49.8191 33.9391 49.806 33.9354 49.793C33.5321 47.3059 33.6394 44.9345 34.2351 42.6022C34.8567 40.2606 35.8779 38.124 37.2616 36.2485C38.6454 34.3748 40.4028 32.7771 42.4822 31.5C44.5541 30.1931 46.8185 29.3411 49.3529 28.9458C49.3936 28.9384 49.4195 28.9011 49.4121 28.8638C49.4121 28.8526 49.4084 28.8396 49.401 28.8303C49.3899 28.8209 49.3825 28.8135 49.3714 28.8079C49.3566 28.8042 49.3455 28.8023 49.3344 28.8042L49.3344 28.8042Z" fill="rgb(9,0,23)" fill-rule="evenodd" />
		<path id="矢量 471" d="M49.3344 28.8042C46.7962 29.1994 44.3802 29.095 42.0012 28.5133C39.6148 27.9018 37.4392 26.9007 35.5301 25.5415C33.6172 24.1824 31.9745 22.4598 30.6425 20.4258C29.3402 18.3881 28.4892 16.1639 28.0859 13.6806C28.0822 13.6675 28.0785 13.6545 28.0674 13.6452C28.06 13.634 28.0489 13.6265 28.0378 13.6228C28.0267 13.6172 28.0119 13.6153 27.9971 13.6191C27.986 13.6209 27.9749 13.6246 27.9638 13.634C27.9527 13.6414 27.9453 13.6507 27.9416 13.6638C27.9379 13.675 27.9379 13.688 27.9379 13.6992C28.3412 16.1844 28.2191 18.5614 27.5938 20.8993C27.0018 23.2354 25.9992 25.3682 24.6117 27.2418C23.2279 29.1155 21.4705 30.73 19.3985 32.0369C17.3229 33.314 15.0549 34.1492 12.5204 34.5463C12.4797 34.5538 12.4538 34.5911 12.4575 34.6302C12.4649 34.6694 12.5019 34.6955 12.5426 34.6899C15.0734 34.2947 17.4968 34.414 19.8832 35.0255C22.2623 35.6072 24.4378 36.5915 26.3469 37.9506C28.2598 39.3135 29.8877 41.0361 31.1901 43.0757C32.5221 45.1097 33.3878 47.3283 33.7911 49.8153C33.7948 49.8284 33.7985 49.8396 33.8096 49.8489C33.817 49.8601 33.8281 49.8675 33.8392 49.8713C33.8503 49.875 33.8651 49.8769 33.8762 49.875C33.8873 49.8731 33.9021 49.8675 33.9095 49.8601C33.9206 49.8526 33.928 49.8414 33.9317 49.8303C33.9391 49.8191 33.9391 49.806 33.9354 49.793C33.5321 47.3059 33.6394 44.9345 34.2351 42.6022C34.8567 40.2606 35.8779 38.124 37.2616 36.2485C38.6454 34.3748 40.4028 32.7771 42.4822 31.5C44.5541 30.1931 46.8185 29.3411 49.3529 28.9458C49.3936 28.9384 49.4195 28.9011 49.4121 28.8638C49.4121 28.8526 49.4084 28.8396 49.401 28.8303C49.3899 28.8209 49.3825 28.8135 49.3714 28.8079C49.3566 28.8042 49.3455 28.8023 49.3344 28.8042L49.3344 28.8042Z" fill="url(#paint_linear_17)" fill-rule="evenodd" />
		<path id="矢量 471" d="M39.8811 12.3382C39.2522 12.2935 38.6787 12.1332 38.1459 11.8628C37.6094 11.585 37.1469 11.2252 36.7695 10.7946C36.3922 10.3639 36.0962 9.86239 35.8964 9.30122C35.704 8.74378 35.6263 8.16397 35.6744 7.54874C35.6744 7.54501 35.6744 7.54128 35.6707 7.53942C35.6707 7.53569 35.667 7.53382 35.667 7.53196C35.6633 7.5301 35.6596 7.5301 35.6559 7.52823C35.6522 7.52823 35.6522 7.5301 35.6485 7.5301C35.6448 7.53196 35.6411 7.53382 35.6411 7.53755C35.6374 7.53942 35.6374 7.54128 35.6374 7.54501C35.5893 8.16211 35.4265 8.72141 35.1416 9.24716C34.8641 9.77104 34.5015 10.2259 34.0649 10.5969C33.6246 10.968 33.114 11.2551 32.5406 11.4527C31.9708 11.6428 31.3825 11.7174 30.7535 11.6727C30.7424 11.6708 30.735 11.6801 30.735 11.6895C30.735 11.6988 30.7424 11.7062 30.7498 11.7081C31.3788 11.7528 31.9523 11.9169 32.4851 12.1947C33.0215 12.465 33.484 12.8211 33.8614 13.2518C34.2388 13.6824 34.5311 14.1839 34.7235 14.7433C34.927 15.3044 35.0047 15.8824 34.9566 16.4976C34.9566 16.5013 34.9603 16.5051 34.9603 16.5069C34.9603 16.5107 34.964 16.5125 34.9677 16.5144C34.9677 16.5162 34.9714 16.5162 34.9751 16.5181C34.9788 16.5181 34.9825 16.5162 34.9825 16.5162C34.9862 16.5144 34.9899 16.5125 34.9899 16.5088C34.9936 16.5069 34.9936 16.5032 34.9936 16.5013C35.0417 15.8842 35.2045 15.3231 35.4783 14.7992C35.7632 14.2753 36.1295 13.8204 36.566 13.4494C37.0063 13.0784 37.5169 12.7931 38.0904 12.603C38.6602 12.4054 39.2485 12.3271 39.8774 12.3737C39.8885 12.3737 39.896 12.3662 39.896 12.3569C39.896 12.355 39.896 12.3513 39.896 12.3494C39.8923 12.3457 39.8923 12.3438 39.8885 12.342C39.8848 12.3401 39.8848 12.3382 39.8811 12.3382L39.8811 12.3382Z" fill="rgb(9,0,23)" fill-rule="evenodd" />
		<path id="矢量 471" d="M39.8811 12.3382C39.2522 12.2935 38.6787 12.1332 38.1459 11.8628C37.6094 11.585 37.1469 11.2252 36.7695 10.7946C36.3922 10.3639 36.0962 9.86239 35.8964 9.30122C35.704 8.74378 35.6263 8.16397 35.6744 7.54874C35.6744 7.54501 35.6744 7.54128 35.6707 7.53942C35.6707 7.53569 35.667 7.53382 35.667 7.53196C35.6633 7.5301 35.6596 7.5301 35.6559 7.52823C35.6522 7.52823 35.6522 7.5301 35.6485 7.5301C35.6448 7.53196 35.6411 7.53382 35.6411 7.53755C35.6374 7.53942 35.6374 7.54128 35.6374 7.54501C35.5893 8.16211 35.4265 8.72141 35.1416 9.24716C34.8641 9.77104 34.5015 10.2259 34.0649 10.5969C33.6246 10.968 33.114 11.2551 32.5406 11.4527C31.9708 11.6428 31.3825 11.7174 30.7535 11.6727C30.7424 11.6708 30.735 11.6801 30.735 11.6895C30.735 11.6988 30.7424 11.7062 30.7498 11.7081C31.3788 11.7528 31.9523 11.9169 32.4851 12.1947C33.0215 12.465 33.484 12.8211 33.8614 13.2518C34.2388 13.6824 34.5311 14.1839 34.7235 14.7433C34.927 15.3044 35.0047 15.8824 34.9566 16.4976C34.9566 16.5013 34.9603 16.5051 34.9603 16.5069C34.9603 16.5107 34.964 16.5125 34.9677 16.5144C34.9677 16.5162 34.9714 16.5162 34.9751 16.5181C34.9788 16.5181 34.9825 16.5162 34.9825 16.5162C34.9862 16.5144 34.9899 16.5125 34.9899 16.5088C34.9936 16.5069 34.9936 16.5032 34.9936 16.5013C35.0417 15.8842 35.2045 15.3231 35.4783 14.7992C35.7632 14.2753 36.1295 13.8204 36.566 13.4494C37.0063 13.0784 37.5169 12.7931 38.0904 12.603C38.6602 12.4054 39.2485 12.3271 39.8774 12.3737C39.8885 12.3737 39.896 12.3662 39.896 12.3569C39.896 12.355 39.896 12.3513 39.896 12.3494C39.8923 12.3457 39.8923 12.3438 39.8885 12.342C39.8848 12.3401 39.8848 12.3382 39.8811 12.3382L39.8811 12.3382Z" fill="url(#paint_linear_18)" fill-rule="evenodd" />
	</g>
</svg>
