<svg viewBox="0 0 168 50" xmlns="http://www.w3.org/2000/svg" xmlns:xlink="http://www.w3.org/1999/xlink" width="168.000000" height="50.000000" fill="none">
	<defs>
		<linearGradient id="paint_linear_5" x1="22.630024" x2="37.592659" y1="29.5772915" y2="16.7795944" gradientUnits="userSpaceOnUse">
			<stop stop-color="rgb(33,123,254)" offset="0" stop-opacity="1" />
			<stop stop-color="rgb(7,142,251)" offset="0.270000011" stop-opacity="1" />
			<stop stop-color="rgb(161,144,255)" offset="0.77700001" stop-opacity="1" />
			<stop stop-color="rgb(189,153,254)" offset="1" stop-opacity="1" />
		</linearGradient>
		<linearGradient id="paint_linear_6" x1="22.630024" x2="37.592659" y1="29.5772915" y2="16.7795944" gradientUnits="userSpaceOnUse">
			<stop stop-color="rgb(33,123,254)" offset="0" stop-opacity="1" />
			<stop stop-color="rgb(7,142,251)" offset="0.270000011" stop-opacity="1" />
			<stop stop-color="rgb(161,144,255)" offset="0.77700001" stop-opacity="1" />
			<stop stop-color="rgb(189,153,254)" offset="1" stop-opacity="1" />
		</linearGradient>
	</defs>
	<rect id="svgexport-1 1" width="168.000000" height="50.000000" x="0.000000" y="0.000000" />
	<g id="组合 310">
		<path id="矢量 471" d="M20.9313 8L36.5439 8C41.4765 8 45.4752 11.9419 45.4752 16.8045L45.4752 32.1955C45.4752 37.0581 41.4765 41 36.5439 41L20.9313 41C15.9986 41 12 37.0581 12 32.1955L12 16.8045C12 11.9419 15.9986 8 20.9313 8Z" fill="rgb(255,255,255)" fill-rule="evenodd" />
		<path id="矢量 471" d="M39.1143 23.8425C37.6176 24.0771 36.1909 24.0144 34.787 23.6695C33.3787 23.307 32.0932 22.7138 30.9659 21.9074C29.8387 21.1011 28.8676 20.0789 28.0812 18.8731C27.313 17.6644 26.8098 16.3453 26.572 14.8713C26.5708 14.8637 26.5675 14.8565 26.5627 14.8505C26.5578 14.8446 26.5512 14.84 26.5441 14.8372C26.5367 14.8345 26.5287 14.8337 26.5212 14.8349C26.5137 14.836 26.5066 14.8391 26.5008 14.8438C26.4949 14.8485 26.4904 14.8546 26.4877 14.8616C26.4851 14.8685 26.4843 14.876 26.4855 14.8834C26.7232 16.3574 26.6508 17.7667 26.2828 19.1535C25.9331 20.539 25.3404 21.8048 24.5226 22.9161C23.7046 24.0274 22.6677 24.9846 21.4445 25.7598C20.2185 26.5171 18.8803 27.0132 17.3835 27.2479C17.3611 27.2529 17.3445 27.2754 17.3481 27.2978C17.3519 27.3217 17.3746 27.3365 17.3973 27.333C18.8926 27.0985 20.3222 27.1699 21.7305 27.5326C23.1358 27.8772 24.4199 28.4614 25.5472 29.2678C26.6748 30.0755 27.6365 31.0977 28.4048 32.3079C29.1913 33.5137 29.7033 34.8299 29.9413 36.3054C29.9425 36.3128 29.9456 36.3197 29.9504 36.3255C29.9551 36.3313 29.9613 36.3357 29.9684 36.3384C29.9754 36.3411 29.983 36.3419 29.9905 36.3407C29.9979 36.3396 30.005 36.3364 30.0109 36.3317C30.0167 36.327 30.0212 36.3209 30.0239 36.314C30.0266 36.307 30.0274 36.2994 30.0262 36.2921C29.7882 34.8166 29.8517 33.4101 30.2015 32.0262C30.5695 30.6379 31.1712 29.3706 31.9888 28.2578C32.8068 27.1466 33.8436 26.1985 35.0712 25.441C36.2944 24.6659 37.631 24.1607 39.1263 23.9264C39.1505 23.9225 39.1656 23.9003 39.162 23.8778C39.161 23.8706 39.1581 23.8637 39.1536 23.8579C39.149 23.8521 39.1431 23.8476 39.1361 23.8449C39.1292 23.8421 39.1216 23.8414 39.1143 23.8425L39.1143 23.8425Z" fill="rgb(255,255,255)" fill-rule="evenodd" />
		<path id="矢量 471" d="M39.1143 23.8425C37.6176 24.0771 36.1909 24.0144 34.787 23.6695C33.3787 23.307 32.0932 22.7138 30.9659 21.9074C29.8387 21.1011 28.8676 20.0789 28.0812 18.8731C27.313 17.6644 26.8098 16.3453 26.572 14.8713C26.5708 14.8637 26.5675 14.8565 26.5627 14.8505C26.5578 14.8446 26.5512 14.84 26.5441 14.8372C26.5367 14.8345 26.5287 14.8337 26.5212 14.8349C26.5137 14.836 26.5066 14.8391 26.5008 14.8438C26.4949 14.8485 26.4904 14.8546 26.4877 14.8616C26.4851 14.8685 26.4843 14.876 26.4855 14.8834C26.7232 16.3574 26.6508 17.7667 26.2828 19.1535C25.9331 20.539 25.3404 21.8048 24.5226 22.9161C23.7046 24.0274 22.6677 24.9846 21.4445 25.7598C20.2185 26.5171 18.8803 27.0132 17.3835 27.2479C17.3611 27.2529 17.3445 27.2754 17.3481 27.2978C17.3519 27.3217 17.3746 27.3365 17.3973 27.333C18.8926 27.0985 20.3222 27.1699 21.7305 27.5326C23.1358 27.8772 24.4199 28.4614 25.5472 29.2678C26.6748 30.0755 27.6365 31.0977 28.4048 32.3079C29.1913 33.5137 29.7033 34.8299 29.9413 36.3054C29.9425 36.3128 29.9456 36.3197 29.9504 36.3255C29.9551 36.3313 29.9613 36.3357 29.9684 36.3384C29.9754 36.3411 29.983 36.3419 29.9905 36.3407C29.9979 36.3396 30.005 36.3364 30.0109 36.3317C30.0167 36.327 30.0212 36.3209 30.0239 36.314C30.0266 36.307 30.0274 36.2994 30.0262 36.2921C29.7882 34.8166 29.8517 33.4101 30.2015 32.0262C30.5695 30.6379 31.1712 29.3706 31.9888 28.2578C32.8068 27.1466 33.8436 26.1985 35.0712 25.441C36.2944 24.6659 37.631 24.1607 39.1263 23.9264C39.1505 23.9225 39.1656 23.9003 39.162 23.8778C39.161 23.8706 39.1581 23.8637 39.1536 23.8579C39.149 23.8521 39.1431 23.8476 39.1361 23.8449C39.1292 23.8421 39.1216 23.8414 39.1143 23.8425L39.1143 23.8425Z" fill="url(#paint_linear_5)" fill-rule="evenodd" />
		<path id="矢量 471" d="M33.5365 14.0758C33.1654 14.0486 32.8281 13.9542 32.5124 13.7937C32.1967 13.6287 31.9234 13.4154 31.7002 13.1601C31.4771 12.9047 31.3036 12.6064 31.1847 12.2745C31.0704 11.943 31.0257 11.5998 31.0532 11.2344C31.0534 11.2325 31.0531 11.2306 31.0522 11.2289C31.0514 11.2272 31.05 11.2257 31.0486 11.2247C31.047 11.2236 31.0451 11.223 31.0431 11.2229C31.0414 11.2227 31.0395 11.2231 31.0378 11.2238C31.0362 11.2246 31.0347 11.2259 31.0337 11.2274C31.0326 11.2289 31.0321 11.2306 31.0319 11.2324C31.0042 11.5979 30.9062 11.9306 30.739 12.2414C30.576 12.553 30.362 12.8224 30.1029 13.0424C29.8437 13.2624 29.5412 13.4335 29.2046 13.5506C28.8682 13.6633 28.52 13.7074 28.149 13.6801C28.1433 13.6801 28.1381 13.6845 28.1377 13.6901C28.1372 13.696 28.1417 13.7008 28.1474 13.7013C28.5181 13.7285 28.8556 13.8251 29.1714 13.9901C29.4874 14.1506 29.7608 14.3617 29.984 14.6171C30.2071 14.8728 30.3784 15.1706 30.4928 15.5024C30.6115 15.8343 30.6585 16.1773 30.631 16.5431C30.6308 16.5449 30.6311 16.5467 30.6319 16.5484C30.6327 16.55 30.6339 16.5514 30.6355 16.5524C30.637 16.5535 30.6388 16.5541 30.6407 16.5542C30.6426 16.5543 30.6444 16.554 30.646 16.5532C30.6478 16.5524 30.6491 16.5512 30.6502 16.5497C30.6512 16.5482 30.6519 16.5464 30.652 16.5446C30.6796 16.1788 30.7753 15.8463 30.9382 15.5351C31.1056 15.2239 31.3219 14.9546 31.5809 14.7342C31.8401 14.5142 32.1421 14.3454 32.4788 14.2327C32.8155 14.1156 33.1638 14.0693 33.5345 14.0965C33.5405 14.0969 33.5454 14.0925 33.5458 14.0869C33.546 14.0851 33.5457 14.0833 33.5449 14.0817C33.5442 14.0801 33.543 14.0786 33.5416 14.0776C33.54 14.0766 33.5382 14.0759 33.5364 14.0758L33.5365 14.0758Z" fill="rgb(255,255,255)" fill-rule="evenodd" />
		<path id="矢量 471" d="M33.5365 14.0758C33.1654 14.0486 32.8281 13.9542 32.5124 13.7937C32.1967 13.6287 31.9234 13.4154 31.7002 13.1601C31.4771 12.9047 31.3036 12.6064 31.1847 12.2745C31.0704 11.943 31.0257 11.5998 31.0532 11.2344C31.0534 11.2325 31.0531 11.2306 31.0522 11.2289C31.0514 11.2272 31.05 11.2257 31.0486 11.2247C31.047 11.2236 31.0451 11.223 31.0431 11.2229C31.0414 11.2227 31.0395 11.2231 31.0378 11.2238C31.0362 11.2246 31.0347 11.2259 31.0337 11.2274C31.0326 11.2289 31.0321 11.2306 31.0319 11.2324C31.0042 11.5979 30.9062 11.9306 30.739 12.2414C30.576 12.553 30.362 12.8224 30.1029 13.0424C29.8437 13.2624 29.5412 13.4335 29.2046 13.5506C28.8682 13.6633 28.52 13.7074 28.149 13.6801C28.1433 13.6801 28.1381 13.6845 28.1377 13.6901C28.1372 13.696 28.1417 13.7008 28.1474 13.7013C28.5181 13.7285 28.8556 13.8251 29.1714 13.9901C29.4874 14.1506 29.7608 14.3617 29.984 14.6171C30.2071 14.8728 30.3784 15.1706 30.4928 15.5024C30.6115 15.8343 30.6585 16.1773 30.631 16.5431C30.6308 16.5449 30.6311 16.5467 30.6319 16.5484C30.6327 16.55 30.6339 16.5514 30.6355 16.5524C30.637 16.5535 30.6388 16.5541 30.6407 16.5542C30.6426 16.5543 30.6444 16.554 30.646 16.5532C30.6478 16.5524 30.6491 16.5512 30.6502 16.5497C30.6512 16.5482 30.6519 16.5464 30.652 16.5446C30.6796 16.1788 30.7753 15.8463 30.9382 15.5351C31.1056 15.2239 31.3219 14.9546 31.5809 14.7342C31.8401 14.5142 32.1421 14.3454 32.4788 14.2327C32.8155 14.1156 33.1638 14.0693 33.5345 14.0965C33.5405 14.0969 33.5454 14.0925 33.5458 14.0869C33.546 14.0851 33.5457 14.0833 33.5449 14.0817C33.5442 14.0801 33.543 14.0786 33.5416 14.0776C33.54 14.0766 33.5382 14.0759 33.5364 14.0758L33.5365 14.0758Z" fill="url(#paint_linear_6)" fill-rule="evenodd" />
		<g id="组合 308">
			<path id="矢量 466" d="M53.1914 36.9779L56.198 12.783L65.9043 12.783C68.083 12.8045 69.7551 13.2609 70.9208 14.1522C72.0864 15.0436 72.6692 16.3484 72.6692 18.0666C72.6692 18.2384 72.6474 18.5606 72.6038 19.0331L72.4731 20.1929C72.2117 22.0185 71.3837 23.3716 69.9894 24.2522C70.9262 24.6174 71.6343 25.1758 72.1136 25.9275C72.5929 26.6793 72.8326 27.5813 72.8326 28.6337C72.8326 28.9559 72.8217 29.2029 72.7999 29.3747L72.6365 30.7278C72.3751 32.7253 71.4981 34.2663 70.0057 35.351C68.5133 36.4356 66.4816 36.9779 63.9107 36.9779L53.1914 36.9779ZM64.7277 22.9958C67.059 22.9528 68.3662 22.04 68.6494 20.2573L68.8129 18.9687C68.9654 17.1645 67.8869 16.241 65.5774 16.198L59.6295 16.198L58.7798 22.9958L64.7277 22.9958ZM64.3683 33.4985C65.6537 33.477 66.6668 33.23 67.4076 32.7575C68.1483 32.285 68.595 31.6299 68.7475 30.7923L68.9109 29.407C69.0198 28.419 68.7638 27.6619 68.1429 27.1357C67.522 26.6094 66.5579 26.3356 65.2506 26.3141L58.3877 26.3141L57.4726 33.4985L64.3683 33.4985ZM87.5717 33.4341L89.3364 19.0331L93.0947 19.0331L90.8724 36.9779L82.6695 36.9779C78.1596 36.9779 75.9046 34.9375 75.9046 30.8567C75.9046 30.3627 75.9373 29.8258 76.0026 29.2459L77.2772 19.0331L81.0355 19.0331L79.7609 29.3425C79.7174 29.6217 79.6956 30.0083 79.6956 30.5023C79.6956 31.6192 79.9625 32.3924 80.4962 32.822C81.03 33.2515 81.8961 33.4663 83.0944 33.4663L87.5717 33.4341ZM97.474 16.6168L97.9642 12.7508L102.245 12.7508L101.755 16.6168L97.474 16.6168ZM98.9773 36.9779L95.219 36.9779L97.474 19.0331L101.232 19.0331L98.9773 36.9779ZM103.912 26.7974C104.544 21.6212 107.354 19.0331 112.344 19.0331L116.625 19.0331L117.475 12.1387L121.233 12.1387L118.161 36.9779L110.285 36.9779C105.775 36.9779 103.52 34.9375 103.52 30.8567C103.52 30.3627 103.553 29.8258 103.618 29.2459L103.912 26.7974ZM114.827 33.5307L116.2 22.4159L111.919 22.4159C109.457 22.4159 108.052 23.8442 107.703 26.7007L107.376 29.3425C107.333 29.7721 107.311 30.0835 107.311 30.2768C107.311 32.4461 108.444 33.5307 110.71 33.5307L114.827 33.5307Z" fill="rgb(255,255,255)" fill-rule="nonzero" />
		</g>
		<g id="组合 309">
			<path id="矢量 465" d="M120.482 36.9731L137.42 12.0273L137.474 12.0273L141.917 36.9731L137.706 36.9731L136.867 31.9072L128.469 31.9072L125.074 36.9731L120.482 36.9731ZM130.823 28.408L136.261 28.408L135.743 25.3169C135.631 24.6707 135.533 24.0433 135.447 23.4346C135.361 22.8259 135.309 22.1109 135.291 21.2896C134.886 22.098 134.495 22.8086 134.117 23.4212C133.739 24.0338 133.329 24.6657 132.885 25.3169L130.823 28.408ZM145.345 36.9731L151.47 12.8697L156 12.8697L149.874 36.9731L145.345 36.9731Z" fill="rgb(255,255,255)" fill-rule="nonzero" />
		</g>
	</g>
</svg>
